<?xml version="1.0" encoding="utf-8" ?>
<svg baseProfile="full" height="343.0" version="1.1" width="378.0" xmlns="http://www.w3.org/2000/svg" xmlns:ev="http://www.w3.org/2001/xml-events" xmlns:xlink="http://www.w3.org/1999/xlink"><defs /><polyline fill="none" points="322.0,88.2 322.0,77.0 329.0,77.0 329.0,81.2" stroke="rgb(68,1,84)" stroke-width="4.2" /><polyline fill="none" points="329.0,86.8 329.0,91.0 296.8,91.0" stroke="rgb(68,3,87)" stroke-width="4.2" /><polyline fill="none" points="291.2,91.0 259.0,91.0 259.0,102.2" stroke="rgb(69,8,91)" stroke-width="4.2" /><polyline fill="none" points="259.0,107.8 259.0,112.0 266.0,112.0 266.0,93.8" stroke="rgb(70,11,94)" stroke-width="4.2" /><polyline fill="none" points="266.0,88.2 266.0,58.800000000000004" stroke="rgb(71,15,98)" stroke-width="4.2" /><polyline fill="none" points="266.0,53.199999999999996 266.0,44.800000000000004" stroke="rgb(71,18,101)" stroke-width="4.2" /><polyline fill="none" points="266.0,39.199999999999996 266.0,35.0 252.0,35.0 252.0,46.199999999999996" stroke="rgb(71,22,105)" stroke-width="4.2" /><polyline fill="none" points="252.0,51.800000000000004 252.0,112.0 240.79999999999998,112.0" stroke="rgb(72,26,108)" stroke-width="4.2" /><polyline fill="none" points="235.20000000000002,112.0 226.79999999999998,112.0" stroke="rgb(72,29,111)" stroke-width="4.2" /><polyline fill="none" points="221.20000000000002,112.0 217.0,112.0 217.0,14.0 228.20000000000002,14.0" stroke="rgb(72,33,114)" stroke-width="4.2" /><polyline fill="none" points="233.79999999999998,14.0 371.0,14.0 371.0,154.0 366.8,154.0" stroke="rgb(72,35,116)" stroke-width="4.2" /><polyline fill="none" points="361.2,154.0 205.79999999999998,154.0" stroke="rgb(71,39,119)" stroke-width="4.2" /><polyline fill="none" points="200.20000000000002,154.0 196.0,154.0 196.0,172.20000000000002" stroke="rgb(71,43,122)" stroke-width="4.2" /><polyline fill="none" points="196.0,177.79999999999998 196.0,200.20000000000002" stroke="rgb(70,45,124)" stroke-width="4.2" /><polyline fill="none" points="196.0,205.79999999999998 196.0,214.20000000000002" stroke="rgb(70,49,126)" stroke-width="4.2" /><polyline fill="none" points="196.0,219.79999999999998 196.0,263.2" stroke="rgb(69,52,127)" stroke-width="4.2" /><polyline fill="none" points="196.0,268.8 196.0,273.0 182.0,273.0 182.0,280.0 186.20000000000002,280.0" stroke="rgb(68,55,129)" stroke-width="4.2" /><polyline fill="none" points="191.79999999999998,280.0 203.0,280.0 203.0,266.0 191.79999999999998,266.0" stroke="rgb(67,58,131)" stroke-width="4.2" /><polyline fill="none" points="186.20000000000002,266.0 156.79999999999998,266.0" stroke="rgb(66,61,132)" stroke-width="4.2" /><polyline fill="none" points="151.20000000000002,266.0 147.0,266.0 147.0,259.0 161.0,259.0 161.0,254.79999999999998" stroke="rgb(65,65,134)" stroke-width="4.2" /><polyline fill="none" points="161.0,249.20000000000002 161.0,240.79999999999998" stroke="rgb(64,67,135)" stroke-width="4.2" /><polyline fill="none" points="161.0,235.20000000000002 161.0,226.79999999999998" stroke="rgb(63,71,136)" stroke-width="4.2" /><polyline fill="none" points="161.0,221.20000000000002 161.0,217.0 140.0,217.0 140.0,242.20000000000002" stroke="rgb(62,73,137)" stroke-width="4.2" /><polyline fill="none" points="140.0,247.79999999999998 140.0,294.0 133.0,294.0 133.0,289.8" stroke="rgb(61,76,137)" stroke-width="4.2" /><polyline fill="none" points="133.0,284.2 133.0,245.0 158.20000000000002,245.0" stroke="rgb(59,80,138)" stroke-width="4.2" /><polyline fill="none" points="163.79999999999998,245.0 168.0,245.0 168.0,238.0 142.79999999999998,238.0" stroke="rgb(58,82,139)" stroke-width="4.2" /><polyline fill="none" points="137.20000000000002,238.0 114.79999999999998,238.0" stroke="rgb(57,85,139)" stroke-width="4.2" /><polyline fill="none" points="109.2,238.0 105.0,238.0 105.0,203.0 203.0,203.0 203.0,210.0 198.79999999999998,210.0" stroke="rgb(56,87,140)" stroke-width="4.2" /><polyline fill="none" points="193.20000000000002,210.0 189.0,210.0 189.0,217.0 210.0,217.0 210.0,196.0 198.79999999999998,196.0" stroke="rgb(54,90,140)" stroke-width="4.2" /><polyline fill="none" points="193.20000000000002,196.0 98.0,196.0 98.0,322.0 301.0,322.0 301.0,175.0 275.8,175.0" stroke="rgb(54,90,140)" stroke-width="4.2" /><polyline fill="none" points="270.2,175.0 93.8,175.0" stroke="rgb(52,95,141)" stroke-width="4.2" /><polyline fill="none" points="88.2,175.0 28.0,175.0 28.0,56.0 39.199999999999996,56.0" stroke="rgb(50,98,141)" stroke-width="4.2" /><polyline fill="none" points="44.800000000000004,56.0 77.0,56.0 77.0,42.0 72.8,42.0" stroke="rgb(49,100,141)" stroke-width="4.2" /><polyline fill="none" points="67.2,42.0 58.800000000000004,42.0" stroke="rgb(48,103,141)" stroke-width="4.2" /><polyline fill="none" points="53.199999999999996,42.0 49.0,42.0 49.0,35.0 60.199999999999996,35.0" stroke="rgb(47,105,141)" stroke-width="4.2" /><polyline fill="none" points="65.8,35.0 70.0,35.0 70.0,49.0 63.0,49.0 63.0,44.800000000000004" stroke="rgb(46,108,142)" stroke-width="4.2" /><polyline fill="none" points="63.0,39.199999999999996 63.0,28.0 58.800000000000004,28.0" stroke="rgb(45,111,142)" stroke-width="4.2" /><polyline fill="none" points="53.199999999999996,28.0 21.0,28.0 21.0,179.20000000000002" stroke="rgb(44,113,142)" stroke-width="4.2" /><polyline fill="none" points="21.0,184.79999999999998 21.0,189.0 63.0,189.0 63.0,182.0 58.800000000000004,182.0" stroke="rgb(43,116,142)" stroke-width="4.2" /><polyline fill="none" points="53.199999999999996,182.0 14.0,182.0 14.0,196.0 53.199999999999996,196.0" stroke="rgb(42,118,142)" stroke-width="4.2" /><polyline fill="none" points="58.800000000000004,196.0 91.0,196.0 91.0,161.0 86.8,161.0" stroke="rgb(41,121,142)" stroke-width="4.2" /><polyline fill="none" points="81.2,161.0 44.800000000000004,161.0" stroke="rgb(40,123,142)" stroke-width="4.2" /><polyline fill="none" points="39.199999999999996,161.0 35.0,161.0 35.0,154.0 56.0,154.0 56.0,158.20000000000002" stroke="rgb(39,125,142)" stroke-width="4.2" /><polyline fill="none" points="56.0,163.79999999999998 56.0,172.20000000000002" stroke="rgb(38,128,142)" stroke-width="4.2" /><polyline fill="none" points="56.0,177.79999999999998 56.0,186.20000000000002" stroke="rgb(37,130,142)" stroke-width="4.2" /><polyline fill="none" points="56.0,191.79999999999998 56.0,326.2" stroke="rgb(36,133,141)" stroke-width="4.2" /><polyline fill="none" points="56.0,331.8 56.0,336.0 112.0,336.0 112.0,324.8" stroke="rgb(35,135,141)" stroke-width="4.2" /><polyline fill="none" points="112.0,319.2 112.0,231.0 126.0,231.0 126.0,235.20000000000002" stroke="rgb(34,137,141)" stroke-width="4.2" /><polyline fill="none" points="126.0,240.79999999999998 126.0,301.0 189.0,301.0 189.0,289.8" stroke="rgb(33,140,141)" stroke-width="4.2" /><polyline fill="none" points="189.0,284.2 189.0,275.8" stroke="rgb(33,142,140)" stroke-width="4.2" /><polyline fill="none" points="189.0,270.2 189.0,252.0 177.79999999999998,252.0" stroke="rgb(32,145,140)" stroke-width="4.2" /><polyline fill="none" points="172.20000000000002,252.0 154.0,252.0 154.0,256.2" stroke="rgb(31,147,139)" stroke-width="4.2" /><polyline fill="none" points="154.0,261.8 154.0,273.0 175.0,273.0 175.0,268.8" stroke="rgb(31,150,139)" stroke-width="4.2" /><polyline fill="none" points="175.0,263.2 175.0,231.0 163.79999999999998,231.0" stroke="rgb(30,153,138)" stroke-width="4.2" /><polyline fill="none" points="158.20000000000002,231.0 154.0,231.0 154.0,224.0 193.20000000000002,224.0" stroke="rgb(30,154,137)" stroke-width="4.2" /><polyline fill="none" points="198.79999999999998,224.0 277.2,224.0" stroke="rgb(30,157,136)" stroke-width="4.2" /><polyline fill="none" points="282.8,224.0 287.0,224.0 287.0,287.0 275.8,287.0" stroke="rgb(30,159,136)" stroke-width="4.2" /><polyline fill="none" points="270.2,287.0 142.79999999999998,287.0" stroke="rgb(30,159,136)" stroke-width="4.2" /><polyline fill="none" points="137.20000000000002,287.0 128.79999999999998,287.0" stroke="rgb(31,162,134)" stroke-width="4.2" /><polyline fill="none" points="123.20000000000002,287.0 119.0,287.0 119.0,308.0 280.0,308.0 280.0,289.8" stroke="rgb(33,167,132)" stroke-width="4.2" /><polyline fill="none" points="280.0,284.2 280.0,217.0 294.0,217.0 294.0,315.0 273.0,315.0 273.0,310.8" stroke="rgb(35,169,130)" stroke-width="4.2" /><polyline fill="none" points="273.0,305.2 273.0,226.79999999999998" stroke="rgb(37,171,129)" stroke-width="4.2" /><polyline fill="none" points="273.0,221.20000000000002 273.0,156.79999999999998" stroke="rgb(40,174,127)" stroke-width="4.2" /><polyline fill="none" points="273.0,151.20000000000002 273.0,107.8" stroke="rgb(42,176,126)" stroke-width="4.2" /><polyline fill="none" points="273.0,102.2 273.0,98.0 280.0,98.0 280.0,137.20000000000002" stroke="rgb(46,178,124)" stroke-width="4.2" /><polyline fill="none" points="280.0,142.79999999999998 280.0,147.0 343.0,147.0 343.0,126.0 324.8,126.0" stroke="rgb(50,181,122)" stroke-width="4.2" /><polyline fill="none" points="319.2,126.0 303.8,126.0" stroke="rgb(53,183,120)" stroke-width="4.2" /><polyline fill="none" points="298.2,126.0 287.0,126.0 287.0,112.0 291.2,112.0" stroke="rgb(57,185,118)" stroke-width="4.2" /><polyline fill="none" points="296.8,112.0 315.0,112.0 315.0,119.0 310.8,119.0" stroke="rgb(61,187,116)" stroke-width="4.2" /><polyline fill="none" points="305.2,119.0 301.0,119.0 301.0,133.0 294.0,133.0 294.0,128.79999999999998" stroke="rgb(66,190,113)" stroke-width="4.2" /><polyline fill="none" points="294.0,123.20000000000002 294.0,107.8" stroke="rgb(71,192,110)" stroke-width="4.2" /><polyline fill="none" points="294.0,102.2 294.0,84.0 319.2,84.0" stroke="rgb(75,194,108)" stroke-width="4.2" /><polyline fill="none" points="324.8,84.0 333.2,84.0" stroke="rgb(81,196,104)" stroke-width="4.2" /><polyline fill="none" points="338.8,84.0 350.0,84.0 350.0,70.0 345.8,70.0" stroke="rgb(85,198,102)" stroke-width="4.2" /><polyline fill="none" points="340.2,70.0 268.8,70.0" stroke="rgb(91,200,98)" stroke-width="4.2" /><polyline fill="none" points="263.2,70.0 259.0,70.0 259.0,56.0 336.0,56.0 336.0,28.0 245.0,28.0 245.0,42.0 249.20000000000002,42.0" stroke="rgb(96,201,96)" stroke-width="4.2" /><polyline fill="none" points="254.79999999999998,42.0 273.0,42.0 273.0,49.0 268.8,49.0" stroke="rgb(103,204,92)" stroke-width="4.2" /><polyline fill="none" points="263.2,49.0 238.0,49.0 238.0,21.0 357.0,21.0 357.0,91.0 343.0,91.0 343.0,86.8" stroke="rgb(109,206,88)" stroke-width="4.2" /><polyline fill="none" points="343.0,81.2 343.0,63.0 336.0,63.0 336.0,67.2" stroke="rgb(114,207,85)" stroke-width="4.2" /><polyline fill="none" points="336.0,72.8 336.0,123.20000000000002" stroke="rgb(121,209,81)" stroke-width="4.2" /><polyline fill="none" points="336.0,128.79999999999998 336.0,140.0 275.8,140.0" stroke="rgb(126,210,78)" stroke-width="4.2" /><polyline fill="none" points="270.2,140.0 100.8,140.0" stroke="rgb(134,212,73)" stroke-width="4.2" /><polyline fill="none" points="95.2,140.0 56.0,140.0 56.0,58.800000000000004" stroke="rgb(141,214,68)" stroke-width="4.2" /><polyline fill="none" points="56.0,53.199999999999996 56.0,37.800000000000004" stroke="rgb(146,215,65)" stroke-width="4.2" /><polyline fill="none" points="56.0,32.199999999999996 56.0,21.0 84.0,21.0 84.0,137.20000000000002" stroke="rgb(154,216,60)" stroke-width="4.2" /><polyline fill="none" points="84.0,142.79999999999998 84.0,168.0 58.800000000000004,168.0" stroke="rgb(159,217,56)" stroke-width="4.2" /><polyline fill="none" points="53.199999999999996,168.0 42.0,168.0 42.0,156.79999999999998" stroke="rgb(167,219,51)" stroke-width="4.2" /><polyline fill="none" points="42.0,151.20000000000002 42.0,30.800000000000004" stroke="rgb(173,220,48)" stroke-width="4.2" /><polyline fill="none" points="42.0,25.2 42.0,14.0 98.0,14.0 98.0,161.0 193.20000000000002,161.0" stroke="rgb(181,221,43)" stroke-width="4.2" /><polyline fill="none" points="198.79999999999998,161.0 203.0,161.0 203.0,142.79999999999998" stroke="rgb(189,222,38)" stroke-width="4.2" /><polyline fill="none" points="203.0,137.20000000000002 203.0,7.0 7.0,7.0 7.0,329.0 109.2,329.0" stroke="rgb(194,223,34)" stroke-width="4.2" /><polyline fill="none" points="114.79999999999998,329.0 364.0,329.0 364.0,16.8" stroke="rgb(202,224,30)" stroke-width="4.2" /><polyline fill="none" points="364.0,11.200000000000001 364.0,7.0 231.0,7.0 231.0,109.2" stroke="rgb(207,225,28)" stroke-width="4.2" /><polyline fill="none" points="231.0,114.79999999999998 231.0,119.0 224.0,119.0 224.0,16.8" stroke="rgb(215,226,25)" stroke-width="4.2" /><polyline fill="none" points="224.0,11.200000000000001 224.0,7.0 210.0,7.0 210.0,126.0 238.0,126.0 238.0,105.0 249.20000000000002,105.0" stroke="rgb(223,227,24)" stroke-width="4.2" /><polyline fill="none" points="254.79999999999998,105.0 263.2,105.0" stroke="rgb(228,227,24)" stroke-width="4.2" /><polyline fill="none" points="268.8,105.0 277.2,105.0" stroke="rgb(236,228,26)" stroke-width="4.2" /><polyline fill="none" points="282.8,105.0 308.0,105.0 308.0,109.2" stroke="rgb(241,229,28)" stroke-width="4.2" /><polyline fill="none" points="308.0,114.79999999999998 308.0,123.20000000000002" stroke="rgb(248,230,33)" stroke-width="4.2" /><polyline fill="none" points="308.0,128.79999999999998 308.0,133.0 322.0,133.0 322.0,93.8" stroke="rgb(253,231,36)" stroke-width="4.2" /></svg>