<?xml version="1.0" encoding="utf-8" ?>
<svg baseProfile="full" height="84.0" version="1.1" width="91.0" xmlns="http://www.w3.org/2000/svg" xmlns:ev="http://www.w3.org/2001/xml-events" xmlns:xlink="http://www.w3.org/1999/xlink"><defs /><polyline fill="none" points="32.199999999999996,28.0 28.0,28.0 28.0,21.0 60.199999999999996,21.0" stroke="rgb(0,0,0)" stroke-width="4.2" /><polyline fill="none" points="65.8,21.0 67.2,21.0" stroke="rgb(0,0,0)" stroke-width="4.2" /><polyline fill="none" points="72.8,21.0 84.0,21.0 84.0,77.0 70.0,77.0 70.0,65.8" stroke="rgb(0,0,0)" stroke-width="4.2" /><polyline fill="none" points="70.0,60.199999999999996 70.0,14.0 63.0,14.0 63.0,56.0 51.800000000000004,56.0" stroke="rgb(0,0,0)" stroke-width="4.2" /><polyline fill="none" points="46.199999999999996,56.0 7.0,56.0 7.0,7.0 49.0,7.0 49.0,18.2" stroke="rgb(0,0,0)" stroke-width="4.2" /><polyline fill="none" points="49.0,23.8 49.0,25.2" stroke="rgb(0,0,0)" stroke-width="4.2" /><polyline fill="none" points="49.0,30.800000000000004 49.0,60.199999999999996" stroke="rgb(0,0,0)" stroke-width="4.2" /><polyline fill="none" points="49.0,65.8 49.0,70.0 67.2,70.0" stroke="rgb(0,0,0)" stroke-width="4.2" /><polyline fill="none" points="72.8,70.0 77.0,70.0 77.0,63.0 14.0,63.0 14.0,58.800000000000004" stroke="rgb(0,0,0)" stroke-width="4.2" /><polyline fill="none" points="14.0,53.199999999999996 14.0,35.0 32.199999999999996,35.0" stroke="rgb(0,0,0)" stroke-width="4.2" /><polyline fill="none" points="37.800000000000004,35.0 42.0,35.0 42.0,39.199999999999996" stroke="rgb(0,0,0)" stroke-width="4.2" /><polyline fill="none" points="42.0,44.800000000000004 42.0,49.0 21.0,49.0 21.0,37.800000000000004" stroke="rgb(0,0,0)" stroke-width="4.2" /><polyline fill="none" points="21.0,32.199999999999996 21.0,14.0 35.0,14.0 35.0,18.2" stroke="rgb(0,0,0)" stroke-width="4.2" /><polyline fill="none" points="35.0,23.8 35.0,42.0 46.199999999999996,42.0" stroke="rgb(0,0,0)" stroke-width="4.2" /><polyline fill="none" points="51.800000000000004,42.0 56.0,42.0 56.0,28.0 37.800000000000004,28.0" stroke="rgb(0,0,0)" stroke-width="4.2" /></svg>