<?xml version="1.0" encoding="utf-8" ?>
<svg baseProfile="full" height="77.0" version="1.1" width="91.0" xmlns="http://www.w3.org/2000/svg" xmlns:ev="http://www.w3.org/2001/xml-events" xmlns:xlink="http://www.w3.org/1999/xlink"><defs /><polyline fill="none" points="35.0,37.800000000000004 35.0,46.199999999999996" stroke="rgb(0,0,0)" stroke-width="4.2" /><polyline fill="none" points="35.0,51.800000000000004 35.0,63.0 49.0,63.0 49.0,44.800000000000004" stroke="rgb(0,0,0)" stroke-width="4.2" /><polyline fill="none" points="49.0,39.199999999999996 49.0,35.0 28.0,35.0 28.0,42.0 32.199999999999996,42.0" stroke="rgb(0,0,0)" stroke-width="4.2" /><polyline fill="none" points="37.800000000000004,42.0 53.199999999999996,42.0" stroke="rgb(0,0,0)" stroke-width="4.2" /><polyline fill="none" points="58.800000000000004,42.0 70.0,42.0 70.0,23.8" stroke="rgb(0,0,0)" stroke-width="4.2" /><polyline fill="none" points="70.0,18.2 70.0,7.0 84.0,7.0 84.0,28.0 72.8,28.0" stroke="rgb(0,0,0)" stroke-width="4.2" /><polyline fill="none" points="67.2,28.0 37.800000000000004,28.0" stroke="rgb(0,0,0)" stroke-width="4.2" /><polyline fill="none" points="32.199999999999996,28.0 21.0,28.0 21.0,53.199999999999996" stroke="rgb(0,0,0)" stroke-width="4.2" /><polyline fill="none" points="21.0,58.800000000000004 21.0,70.0 56.0,70.0 56.0,30.800000000000004" stroke="rgb(0,0,0)" stroke-width="4.2" /><polyline fill="none" points="56.0,25.2 56.0,7.0 63.0,7.0 63.0,11.200000000000001" stroke="rgb(0,0,0)" stroke-width="4.2" /><polyline fill="none" points="63.0,16.8 63.0,21.0 77.0,21.0 77.0,14.0 72.8,14.0" stroke="rgb(0,0,0)" stroke-width="4.2" /><polyline fill="none" points="67.2,14.0 58.800000000000004,14.0" stroke="rgb(0,0,0)" stroke-width="4.2" /><polyline fill="none" points="53.199999999999996,14.0 7.0,14.0 7.0,56.0 32.199999999999996,56.0" stroke="rgb(0,0,0)" stroke-width="4.2" /><polyline fill="none" points="37.800000000000004,56.0 42.0,56.0 42.0,49.0 23.8,49.0" stroke="rgb(0,0,0)" stroke-width="4.2" /><polyline fill="none" points="18.2,49.0 14.0,49.0 14.0,21.0 35.0,21.0 35.0,32.199999999999996" stroke="rgb(0,0,0)" stroke-width="4.2" /></svg>