<?xml version="1.0" encoding="UTF-8"?>
<svg xmlns="http://www.w3.org/2000/svg" xmlns:xlink="http://www.w3.org/1999/xlink" width="129.601pt" height="113.4pt" viewBox="0 0 129.601 113.4" version="1.1">
<defs>
<clipPath id="clip1">
  <path d="M 0 0 L 129.601562 0 L 129.601562 113.398438 L 0 113.398438 Z M 0 0 "/>
</clipPath>
<clipPath id="clip2">
  <path d="M 88 65 L 97 65 L 97 74 L 88 74 Z M 88 65 "/>
</clipPath>
<clipPath id="clip3">
  <path d="M 96.679688 69.421875 C 96.679688 67.222656 94.894531 65.4375 92.695312 65.4375 C 90.492188 65.4375 88.710938 67.222656 88.710938 69.421875 C 88.710938 71.625 90.492188 73.40625 92.695312 73.40625 C 94.894531 73.40625 96.679688 71.625 96.679688 69.421875 Z M 96.679688 69.421875 "/>
</clipPath>
<clipPath id="clip4">
  <path d="M 88 65 L 98 65 L 98 74 L 88 74 Z M 88 65 "/>
</clipPath>
<clipPath id="clip5">
  <path d="M 97.078125 69.421875 C 97.078125 67 95.117188 65.039062 92.695312 65.039062 C 90.273438 65.039062 88.3125 67 88.3125 69.421875 C 88.3125 71.84375 90.273438 73.804688 92.695312 73.804688 C 95.117188 73.804688 97.078125 71.84375 97.078125 69.421875 Z M 97.078125 69.421875 "/>
</clipPath>
<clipPath id="clip6">
  <path d="M 93 80 L 102 80 L 102 89 L 93 89 Z M 93 80 "/>
</clipPath>
<clipPath id="clip7">
  <path d="M 101.734375 84.425781 C 101.734375 82.226562 99.949219 80.441406 97.75 80.441406 C 95.550781 80.441406 93.765625 82.226562 93.765625 84.425781 C 93.765625 86.628906 95.550781 88.414062 97.75 88.414062 C 99.949219 88.414062 101.734375 86.628906 101.734375 84.425781 Z M 101.734375 84.425781 "/>
</clipPath>
<clipPath id="clip8">
  <path d="M 93 80 L 103 80 L 103 89 L 93 89 Z M 93 80 "/>
</clipPath>
<clipPath id="clip9">
  <path d="M 102.132812 84.425781 C 102.132812 82.007812 100.171875 80.042969 97.75 80.042969 C 95.328125 80.042969 93.367188 82.007812 93.367188 84.425781 C 93.367188 86.847656 95.328125 88.8125 97.75 88.8125 C 100.171875 88.8125 102.132812 86.847656 102.132812 84.425781 Z M 102.132812 84.425781 "/>
</clipPath>
<clipPath id="clip10">
  <path d="M 91 72 L 100 72 L 100 81 L 91 81 Z M 91 72 "/>
</clipPath>
<clipPath id="clip11">
  <path d="M 99.1875 76.820312 C 99.1875 74.617188 97.40625 72.832031 95.203125 72.832031 C 93.003906 72.832031 91.21875 74.617188 91.21875 76.820312 C 91.21875 79.019531 93.003906 80.804688 95.203125 80.804688 C 97.40625 80.804688 99.1875 79.019531 99.1875 76.820312 Z M 99.1875 76.820312 "/>
</clipPath>
<clipPath id="clip12">
  <path d="M 90 72 L 100 72 L 100 82 L 90 82 Z M 90 72 "/>
</clipPath>
<clipPath id="clip13">
  <path d="M 99.585938 76.820312 C 99.585938 74.398438 97.625 72.433594 95.203125 72.433594 C 92.78125 72.433594 90.820312 74.398438 90.820312 76.820312 C 90.820312 79.238281 92.78125 81.203125 95.203125 81.203125 C 97.625 81.203125 99.585938 79.238281 99.585938 76.820312 Z M 99.585938 76.820312 "/>
</clipPath>
<clipPath id="clip14">
  <path d="M 60 24 L 69 24 L 69 32 L 60 32 Z M 60 24 "/>
</clipPath>
<clipPath id="clip15">
  <path d="M 68.296875 27.992188 C 68.296875 25.789062 66.511719 24.007812 64.3125 24.007812 C 62.109375 24.007812 60.328125 25.789062 60.328125 27.992188 C 60.328125 30.191406 62.109375 31.976562 64.3125 31.976562 C 66.511719 31.976562 68.296875 30.191406 68.296875 27.992188 Z M 68.296875 27.992188 "/>
</clipPath>
<clipPath id="clip16">
  <path d="M 59 23 L 69 23 L 69 33 L 59 33 Z M 59 23 "/>
</clipPath>
<clipPath id="clip17">
  <path d="M 68.695312 27.992188 C 68.695312 25.570312 66.734375 23.605469 64.3125 23.605469 C 61.890625 23.605469 59.929688 25.570312 59.929688 27.992188 C 59.929688 30.410156 61.890625 32.375 64.3125 32.375 C 66.734375 32.375 68.695312 30.410156 68.695312 27.992188 Z M 68.695312 27.992188 "/>
</clipPath>
<clipPath id="clip18">
  <path d="M 40 17 L 49 17 L 49 26 L 40 26 Z M 40 17 "/>
</clipPath>
<clipPath id="clip19">
  <path d="M 48.878906 21.648438 C 48.878906 19.449219 47.09375 17.664062 44.894531 17.664062 C 42.691406 17.664062 40.910156 19.449219 40.910156 21.648438 C 40.910156 23.851562 42.691406 25.636719 44.894531 25.636719 C 47.09375 25.636719 48.878906 23.851562 48.878906 21.648438 Z M 48.878906 21.648438 "/>
</clipPath>
<clipPath id="clip20">
  <path d="M 40 17 L 50 17 L 50 27 L 40 27 Z M 40 17 "/>
</clipPath>
<clipPath id="clip21">
  <path d="M 49.277344 21.648438 C 49.277344 19.230469 47.316406 17.265625 44.894531 17.265625 C 42.472656 17.265625 40.511719 19.230469 40.511719 21.648438 C 40.511719 24.070312 42.472656 26.035156 44.894531 26.035156 C 47.316406 26.035156 49.277344 24.070312 49.277344 21.648438 Z M 49.277344 21.648438 "/>
</clipPath>
<clipPath id="clip22">
  <path d="M 51 19 L 60 19 L 60 28 L 51 28 Z M 51 19 "/>
</clipPath>
<clipPath id="clip23">
  <path d="M 59.054688 23.574219 C 59.054688 21.375 57.269531 19.589844 55.070312 19.589844 C 52.867188 19.589844 51.085938 21.375 51.085938 23.574219 C 51.085938 25.773438 52.867188 27.558594 55.070312 27.558594 C 57.269531 27.558594 59.054688 25.773438 59.054688 23.574219 Z M 59.054688 23.574219 "/>
</clipPath>
<clipPath id="clip24">
  <path d="M 50 19 L 60 19 L 60 28 L 50 28 Z M 50 19 "/>
</clipPath>
<clipPath id="clip25">
  <path d="M 59.453125 23.574219 C 59.453125 21.152344 57.492188 19.191406 55.070312 19.191406 C 52.648438 19.191406 50.6875 21.152344 50.6875 23.574219 C 50.6875 25.996094 52.648438 27.957031 55.070312 27.957031 C 57.492188 27.957031 59.453125 25.996094 59.453125 23.574219 Z M 59.453125 23.574219 "/>
</clipPath>
<clipPath id="clip26">
  <path d="M 34 66 L 43 66 L 43 75 L 34 75 Z M 34 66 "/>
</clipPath>
<clipPath id="clip27">
  <path d="M 42.554688 70.234375 C 42.554688 68.03125 40.769531 66.25 38.570312 66.25 C 36.367188 66.25 34.585938 68.03125 34.585938 70.234375 C 34.585938 72.433594 36.367188 74.21875 38.570312 74.21875 C 40.769531 74.21875 42.554688 72.433594 42.554688 70.234375 Z M 42.554688 70.234375 "/>
</clipPath>
<clipPath id="clip28">
  <path d="M 34 65 L 43 65 L 43 75 L 34 75 Z M 34 65 "/>
</clipPath>
<clipPath id="clip29">
  <path d="M 42.953125 70.234375 C 42.953125 67.8125 40.992188 65.851562 38.570312 65.851562 C 36.148438 65.851562 34.1875 67.8125 34.1875 70.234375 C 34.1875 72.65625 36.148438 74.617188 38.570312 74.617188 C 40.992188 74.617188 42.953125 72.65625 42.953125 70.234375 Z M 42.953125 70.234375 "/>
</clipPath>
<clipPath id="clip30">
  <path d="M 20 54 L 29 54 L 29 63 L 20 63 Z M 20 54 "/>
</clipPath>
<clipPath id="clip31">
  <path d="M 28.058594 58.242188 C 28.058594 56.042969 26.273438 54.257812 24.074219 54.257812 C 21.871094 54.257812 20.085938 56.042969 20.085938 58.242188 C 20.085938 60.441406 21.871094 62.226562 24.074219 62.226562 C 26.273438 62.226562 28.058594 60.441406 28.058594 58.242188 Z M 28.058594 58.242188 "/>
</clipPath>
<clipPath id="clip32">
  <path d="M 19 53 L 29 53 L 29 63 L 19 63 Z M 19 53 "/>
</clipPath>
<clipPath id="clip33">
  <path d="M 28.457031 58.242188 C 28.457031 55.820312 26.492188 53.859375 24.074219 53.859375 C 21.652344 53.859375 19.6875 55.820312 19.6875 58.242188 C 19.6875 60.664062 21.652344 62.625 24.074219 62.625 C 26.492188 62.625 28.457031 60.664062 28.457031 58.242188 Z M 28.457031 58.242188 "/>
</clipPath>
<clipPath id="clip34">
  <path d="M 28 62 L 37 62 L 37 71 L 28 71 Z M 28 62 "/>
</clipPath>
<clipPath id="clip35">
  <path d="M 36.054688 66.382812 C 36.054688 64.183594 34.273438 62.398438 32.070312 62.398438 C 29.871094 62.398438 28.085938 64.183594 28.085938 66.382812 C 28.085938 68.585938 29.871094 70.367188 32.070312 70.367188 C 34.273438 70.367188 36.054688 68.585938 36.054688 66.382812 Z M 36.054688 66.382812 "/>
</clipPath>
<clipPath id="clip36">
  <path d="M 27 62 L 37 62 L 37 71 L 27 71 Z M 27 62 "/>
</clipPath>
<clipPath id="clip37">
  <path d="M 36.453125 66.382812 C 36.453125 63.960938 34.492188 62 32.070312 62 C 29.648438 62 27.6875 63.960938 27.6875 66.382812 C 27.6875 68.804688 29.648438 70.765625 32.070312 70.765625 C 34.492188 70.765625 36.453125 68.804688 36.453125 66.382812 Z M 36.453125 66.382812 "/>
</clipPath>
<clipPath id="clip38">
  <path d="M 101 54 L 110 54 L 110 63 L 101 63 Z M 101 54 "/>
</clipPath>
<clipPath id="clip39">
  <path d="M 109.039062 58.832031 C 109.039062 56.628906 107.253906 54.847656 105.054688 54.847656 C 102.851562 54.847656 101.070312 56.628906 101.070312 58.832031 C 101.070312 61.03125 102.851562 62.816406 105.054688 62.816406 C 107.253906 62.816406 109.039062 61.03125 109.039062 58.832031 Z M 109.039062 58.832031 "/>
</clipPath>
<clipPath id="clip40">
  <path d="M 100 54 L 110 54 L 110 64 L 100 64 Z M 100 54 "/>
</clipPath>
<clipPath id="clip41">
  <path d="M 109.4375 58.832031 C 109.4375 56.410156 107.476562 54.449219 105.054688 54.449219 C 102.632812 54.449219 100.671875 56.410156 100.671875 58.832031 C 100.671875 61.253906 102.632812 63.214844 105.054688 63.214844 C 107.476562 63.214844 109.4375 61.253906 109.4375 58.832031 Z M 109.4375 58.832031 "/>
</clipPath>
<clipPath id="clip42">
  <path d="M 95 60 L 104 60 L 104 69 L 95 69 Z M 95 60 "/>
</clipPath>
<clipPath id="clip43">
  <path d="M 103.683594 64.652344 C 103.683594 62.453125 101.898438 60.667969 99.699219 60.667969 C 97.496094 60.667969 95.714844 62.453125 95.714844 64.652344 C 95.714844 66.855469 97.496094 68.636719 99.699219 68.636719 C 101.898438 68.636719 103.683594 66.855469 103.683594 64.652344 Z M 103.683594 64.652344 "/>
</clipPath>
<clipPath id="clip44">
  <path d="M 95 60 L 105 60 L 105 70 L 95 70 Z M 95 60 "/>
</clipPath>
<clipPath id="clip45">
  <path d="M 104.082031 64.652344 C 104.082031 62.230469 102.121094 60.269531 99.699219 60.269531 C 97.277344 60.269531 95.316406 62.230469 95.316406 64.652344 C 95.316406 67.074219 97.277344 69.035156 99.699219 69.035156 C 102.121094 69.035156 104.082031 67.074219 104.082031 64.652344 Z M 104.082031 64.652344 "/>
</clipPath>
<clipPath id="clip46">
  <path d="M 80 17 L 89 17 L 89 26 L 80 26 Z M 80 17 "/>
</clipPath>
<clipPath id="clip47">
  <path d="M 88.957031 21.605469 C 88.957031 19.40625 87.171875 17.621094 84.972656 17.621094 C 82.769531 17.621094 80.988281 19.40625 80.988281 21.605469 C 80.988281 23.808594 82.769531 25.589844 84.972656 25.589844 C 87.171875 25.589844 88.957031 23.808594 88.957031 21.605469 Z M 88.957031 21.605469 "/>
</clipPath>
<clipPath id="clip48">
  <path d="M 80 17 L 90 17 L 90 26 L 80 26 Z M 80 17 "/>
</clipPath>
<clipPath id="clip49">
  <path d="M 89.355469 21.605469 C 89.355469 19.183594 87.394531 17.222656 84.972656 17.222656 C 82.550781 17.222656 80.589844 19.183594 80.589844 21.605469 C 80.589844 24.027344 82.550781 25.988281 84.972656 25.988281 C 87.394531 25.988281 89.355469 24.027344 89.355469 21.605469 Z M 89.355469 21.605469 "/>
</clipPath>
<clipPath id="clip50">
  <path d="M 69 19 L 78 19 L 78 28 L 69 28 Z M 69 19 "/>
</clipPath>
<clipPath id="clip51">
  <path d="M 77.101562 23.765625 C 77.101562 21.566406 75.316406 19.78125 73.117188 19.78125 C 70.914062 19.78125 69.132812 21.566406 69.132812 23.765625 C 69.132812 25.96875 70.914062 27.753906 73.117188 27.753906 C 75.316406 27.753906 77.101562 25.96875 77.101562 23.765625 Z M 77.101562 23.765625 "/>
</clipPath>
<clipPath id="clip52">
  <path d="M 68 19 L 78 19 L 78 29 L 68 29 Z M 68 19 "/>
</clipPath>
<clipPath id="clip53">
  <path d="M 77.5 23.765625 C 77.5 21.347656 75.539062 19.382812 73.117188 19.382812 C 70.695312 19.382812 68.734375 21.347656 68.734375 23.765625 C 68.734375 26.1875 70.695312 28.152344 73.117188 28.152344 C 75.539062 28.152344 77.5 26.1875 77.5 23.765625 Z M 77.5 23.765625 "/>
</clipPath>
<clipPath id="clip54">
  <path d="M 31 82 L 40 82 L 40 90 L 31 90 Z M 31 82 "/>
</clipPath>
<clipPath id="clip55">
  <path d="M 39.40625 86.015625 C 39.40625 83.816406 37.621094 82.03125 35.421875 82.03125 C 33.21875 82.03125 31.433594 83.816406 31.433594 86.015625 C 31.433594 88.21875 33.21875 90 35.421875 90 C 37.621094 90 39.40625 88.21875 39.40625 86.015625 Z M 39.40625 86.015625 "/>
</clipPath>
<clipPath id="clip56">
  <path d="M 31 81 L 40 81 L 40 91 L 31 91 Z M 31 81 "/>
</clipPath>
<clipPath id="clip57">
  <path d="M 39.804688 86.015625 C 39.804688 83.59375 37.839844 81.632812 35.421875 81.632812 C 33 81.632812 31.035156 83.59375 31.035156 86.015625 C 31.035156 88.4375 33 90.398438 35.421875 90.398438 C 37.839844 90.398438 39.804688 88.4375 39.804688 86.015625 Z M 39.804688 86.015625 "/>
</clipPath>
<clipPath id="clip58">
  <path d="M 33 74 L 41 74 L 41 83 L 33 83 Z M 33 74 "/>
</clipPath>
<clipPath id="clip59">
  <path d="M 40.980469 78.101562 C 40.980469 75.898438 39.195312 74.113281 36.992188 74.113281 C 34.792969 74.113281 33.007812 75.898438 33.007812 78.101562 C 33.007812 80.300781 34.792969 82.085938 36.992188 82.085938 C 39.195312 82.085938 40.980469 80.300781 40.980469 78.101562 Z M 40.980469 78.101562 "/>
</clipPath>
<clipPath id="clip60">
  <path d="M 32 73 L 42 73 L 42 83 L 32 83 Z M 32 73 "/>
</clipPath>
<clipPath id="clip61">
  <path d="M 41.378906 78.101562 C 41.378906 75.679688 39.414062 73.714844 36.992188 73.714844 C 34.574219 73.714844 32.609375 75.679688 32.609375 78.101562 C 32.609375 80.519531 34.574219 82.484375 36.992188 82.484375 C 39.414062 82.484375 41.378906 80.519531 41.378906 78.101562 Z M 41.378906 78.101562 "/>
</clipPath>
<clipPath id="clip62">
  <path d="M 9 97 L 18 97 L 18 106 L 9 106 Z M 9 97 "/>
</clipPath>
<clipPath id="clip63">
  <path d="M 17.507812 101.21875 C 17.507812 99.015625 15.722656 97.234375 13.519531 97.234375 C 11.320312 97.234375 9.535156 99.015625 9.535156 101.21875 C 9.535156 103.417969 11.320312 105.203125 13.519531 105.203125 C 15.722656 105.203125 17.507812 103.417969 17.507812 101.21875 Z M 17.507812 101.21875 "/>
</clipPath>
<clipPath id="clip64">
  <path d="M 9 96 L 18 96 L 18 106 L 9 106 Z M 9 96 "/>
</clipPath>
<clipPath id="clip65">
  <path d="M 17.90625 101.21875 C 17.90625 98.796875 15.941406 96.835938 13.519531 96.835938 C 11.101562 96.835938 9.136719 98.796875 9.136719 101.21875 C 9.136719 103.640625 11.101562 105.601562 13.519531 105.601562 C 15.941406 105.601562 17.90625 103.640625 17.90625 101.21875 Z M 17.90625 101.21875 "/>
</clipPath>
<clipPath id="clip66">
  <path d="M 14 71 L 23 71 L 23 80 L 14 80 Z M 14 71 "/>
</clipPath>
<clipPath id="clip67">
  <path d="M 22.453125 75.304688 C 22.453125 73.105469 20.671875 71.320312 18.46875 71.320312 C 16.269531 71.320312 14.484375 73.105469 14.484375 75.304688 C 14.484375 77.507812 16.269531 79.289062 18.46875 79.289062 C 20.671875 79.289062 22.453125 77.507812 22.453125 75.304688 Z M 22.453125 75.304688 "/>
</clipPath>
<clipPath id="clip68">
  <path d="M 14 70 L 23 70 L 23 80 L 14 80 Z M 14 70 "/>
</clipPath>
<clipPath id="clip69">
  <path d="M 22.851562 75.304688 C 22.851562 72.882812 20.890625 70.921875 18.46875 70.921875 C 16.046875 70.921875 14.085938 72.882812 14.085938 75.304688 C 14.085938 77.726562 16.046875 79.6875 18.46875 79.6875 C 20.890625 79.6875 22.851562 77.726562 22.851562 75.304688 Z M 22.851562 75.304688 "/>
</clipPath>
<clipPath id="clip70">
  <path d="M 17 63 L 26 63 L 26 71 L 17 71 Z M 17 63 "/>
</clipPath>
<clipPath id="clip71">
  <path d="M 25.257812 66.992188 C 25.257812 64.789062 23.472656 63.003906 21.273438 63.003906 C 19.070312 63.003906 17.289062 64.789062 17.289062 66.992188 C 17.289062 69.191406 19.070312 70.976562 21.273438 70.976562 C 23.472656 70.976562 25.257812 69.191406 25.257812 66.992188 Z M 25.257812 66.992188 "/>
</clipPath>
<clipPath id="clip72">
  <path d="M 16 62 L 26 62 L 26 72 L 16 72 Z M 16 62 "/>
</clipPath>
<clipPath id="clip73">
  <path d="M 25.65625 66.992188 C 25.65625 64.570312 23.695312 62.605469 21.273438 62.605469 C 18.851562 62.605469 16.890625 64.570312 16.890625 66.992188 C 16.890625 69.410156 18.851562 71.375 21.273438 71.375 C 23.695312 71.375 25.65625 69.410156 25.65625 66.992188 Z M 25.65625 66.992188 "/>
</clipPath>
<clipPath id="clip74">
  <path d="M 60 4 L 69 4 L 69 13 L 60 13 Z M 60 4 "/>
</clipPath>
<clipPath id="clip75">
  <path d="M 68.925781 8.910156 C 68.925781 6.707031 67.140625 4.921875 64.941406 4.921875 C 62.738281 4.921875 60.957031 6.707031 60.957031 8.910156 C 60.957031 11.109375 62.738281 12.894531 64.941406 12.894531 C 67.140625 12.894531 68.925781 11.109375 68.925781 8.910156 Z M 68.925781 8.910156 "/>
</clipPath>
<clipPath id="clip76">
  <path d="M 60 4 L 70 4 L 70 14 L 60 14 Z M 60 4 "/>
</clipPath>
<clipPath id="clip77">
  <path d="M 69.324219 8.910156 C 69.324219 6.488281 67.363281 4.523438 64.941406 4.523438 C 62.519531 4.523438 60.558594 6.488281 60.558594 8.910156 C 60.558594 11.328125 62.519531 13.292969 64.941406 13.292969 C 67.363281 13.292969 69.324219 11.328125 69.324219 8.910156 Z M 69.324219 8.910156 "/>
</clipPath>
<clipPath id="clip78">
  <path d="M 49 10 L 58 10 L 58 19 L 49 19 Z M 49 10 "/>
</clipPath>
<clipPath id="clip79">
  <path d="M 57.828125 14.589844 C 57.828125 12.386719 56.046875 10.601562 53.84375 10.601562 C 51.644531 10.601562 49.859375 12.386719 49.859375 14.589844 C 49.859375 16.789062 51.644531 18.574219 53.84375 18.574219 C 56.046875 18.574219 57.828125 16.789062 57.828125 14.589844 Z M 57.828125 14.589844 "/>
</clipPath>
<clipPath id="clip80">
  <path d="M 49 10 L 59 10 L 59 19 L 49 19 Z M 49 10 "/>
</clipPath>
<clipPath id="clip81">
  <path d="M 58.226562 14.589844 C 58.226562 12.167969 56.265625 10.203125 53.84375 10.203125 C 51.421875 10.203125 49.460938 12.167969 49.460938 14.589844 C 49.460938 17.007812 51.421875 18.972656 53.84375 18.972656 C 56.265625 18.972656 58.226562 17.007812 58.226562 14.589844 Z M 58.226562 14.589844 "/>
</clipPath>
<clipPath id="clip82">
  <path d="M 105 72 L 114 72 L 114 81 L 105 81 Z M 105 72 "/>
</clipPath>
<clipPath id="clip83">
  <path d="M 113.867188 76.363281 C 113.867188 74.160156 112.085938 72.378906 109.882812 72.378906 C 107.683594 72.378906 105.898438 74.160156 105.898438 76.363281 C 105.898438 78.5625 107.683594 80.347656 109.882812 80.347656 C 112.085938 80.347656 113.867188 78.5625 113.867188 76.363281 Z M 113.867188 76.363281 "/>
</clipPath>
<clipPath id="clip84">
  <path d="M 105 71 L 115 71 L 115 81 L 105 81 Z M 105 71 "/>
</clipPath>
<clipPath id="clip85">
  <path d="M 114.265625 76.363281 C 114.265625 73.941406 112.304688 71.980469 109.882812 71.980469 C 107.460938 71.980469 105.5 73.941406 105.5 76.363281 C 105.5 78.785156 107.460938 80.746094 109.882812 80.746094 C 112.304688 80.746094 114.265625 78.785156 114.265625 76.363281 Z M 114.265625 76.363281 "/>
</clipPath>
<clipPath id="clip86">
  <path d="M 100 76 L 109 76 L 109 85 L 100 85 Z M 100 76 "/>
</clipPath>
<clipPath id="clip87">
  <path d="M 108.523438 80.496094 C 108.523438 78.296875 106.738281 76.511719 104.539062 76.511719 C 102.335938 76.511719 100.554688 78.296875 100.554688 80.496094 C 100.554688 82.699219 102.335938 84.484375 104.539062 84.484375 C 106.738281 84.484375 108.523438 82.699219 108.523438 80.496094 Z M 108.523438 80.496094 "/>
</clipPath>
<clipPath id="clip88">
  <path d="M 100 76 L 109 76 L 109 85 L 100 85 Z M 100 76 "/>
</clipPath>
<clipPath id="clip89">
  <path d="M 108.921875 80.496094 C 108.921875 78.078125 106.960938 76.113281 104.539062 76.113281 C 102.117188 76.113281 100.15625 78.078125 100.15625 80.496094 C 100.15625 82.917969 102.117188 84.882812 104.539062 84.882812 C 106.960938 84.882812 108.921875 82.917969 108.921875 80.496094 Z M 108.921875 80.496094 "/>
</clipPath>
<clipPath id="clip90">
  <path d="M 23 78 L 32 78 L 32 87 L 23 87 Z M 23 78 "/>
</clipPath>
<clipPath id="clip91">
  <path d="M 31.644531 82.128906 C 31.644531 79.925781 29.863281 78.140625 27.660156 78.140625 C 25.460938 78.140625 23.675781 79.925781 23.675781 82.128906 C 23.675781 84.328125 25.460938 86.113281 27.660156 86.113281 C 29.863281 86.113281 31.644531 84.328125 31.644531 82.128906 Z M 31.644531 82.128906 "/>
</clipPath>
<clipPath id="clip92">
  <path d="M 23 77 L 33 77 L 33 87 L 23 87 Z M 23 77 "/>
</clipPath>
<clipPath id="clip93">
  <path d="M 32.042969 82.128906 C 32.042969 79.707031 30.082031 77.742188 27.660156 77.742188 C 25.238281 77.742188 23.277344 79.707031 23.277344 82.128906 C 23.277344 84.546875 25.238281 86.511719 27.660156 86.511719 C 30.082031 86.511719 32.042969 84.546875 32.042969 82.128906 Z M 32.042969 82.128906 "/>
</clipPath>
<clipPath id="clip94">
  <path d="M 71 10 L 80 10 L 80 19 L 71 19 Z M 71 10 "/>
</clipPath>
<clipPath id="clip95">
  <path d="M 79.734375 14.320312 C 79.734375 12.121094 77.949219 10.335938 75.75 10.335938 C 73.546875 10.335938 71.761719 12.121094 71.761719 14.320312 C 71.761719 16.523438 73.546875 18.308594 75.75 18.308594 C 77.949219 18.308594 79.734375 16.523438 79.734375 14.320312 Z M 79.734375 14.320312 "/>
</clipPath>
<clipPath id="clip96">
  <path d="M 71 9 L 81 9 L 81 19 L 71 19 Z M 71 9 "/>
</clipPath>
<clipPath id="clip97">
  <path d="M 80.132812 14.320312 C 80.132812 11.902344 78.167969 9.9375 75.75 9.9375 C 73.328125 9.9375 71.363281 11.902344 71.363281 14.320312 C 71.363281 16.742188 73.328125 18.707031 75.75 18.707031 C 78.167969 18.707031 80.132812 16.742188 80.132812 14.320312 Z M 80.132812 14.320312 "/>
</clipPath>
<clipPath id="clip98">
  <path d="M 103 63 L 112 63 L 112 72 L 103 72 Z M 103 63 "/>
</clipPath>
<clipPath id="clip99">
  <path d="M 111.425781 67.851562 C 111.425781 65.652344 109.644531 63.867188 107.441406 63.867188 C 105.242188 63.867188 103.457031 65.652344 103.457031 67.851562 C 103.457031 70.054688 105.242188 71.835938 107.441406 71.835938 C 109.644531 71.835938 111.425781 70.054688 111.425781 67.851562 Z M 111.425781 67.851562 "/>
</clipPath>
<clipPath id="clip100">
  <path d="M 103 63 L 112 63 L 112 73 L 103 73 Z M 103 63 "/>
</clipPath>
<clipPath id="clip101">
  <path d="M 111.824219 67.851562 C 111.824219 65.429688 109.863281 63.46875 107.441406 63.46875 C 105.019531 63.46875 103.058594 65.429688 103.058594 67.851562 C 103.058594 70.273438 105.019531 72.234375 107.441406 72.234375 C 109.863281 72.234375 111.824219 70.273438 111.824219 67.851562 Z M 111.824219 67.851562 "/>
</clipPath>
<clipPath id="clip102">
  <path d="M 98 68 L 107 68 L 107 77 L 98 77 Z M 98 68 "/>
</clipPath>
<clipPath id="clip103">
  <path d="M 106.148438 72.542969 C 106.148438 70.34375 104.367188 68.558594 102.164062 68.558594 C 99.964844 68.558594 98.179688 70.34375 98.179688 72.542969 C 98.179688 74.746094 99.964844 76.527344 102.164062 76.527344 C 104.367188 76.527344 106.148438 74.746094 106.148438 72.542969 Z M 106.148438 72.542969 "/>
</clipPath>
<clipPath id="clip104">
  <path d="M 97 68 L 107 68 L 107 77 L 97 77 Z M 97 68 "/>
</clipPath>
<clipPath id="clip105">
  <path d="M 106.546875 72.542969 C 106.546875 70.121094 104.585938 68.160156 102.164062 68.160156 C 99.742188 68.160156 97.78125 70.121094 97.78125 72.542969 C 97.78125 74.964844 99.742188 76.925781 102.164062 76.925781 C 104.585938 76.925781 106.546875 74.964844 106.546875 72.542969 Z M 106.546875 72.542969 "/>
</clipPath>
<clipPath id="clip106">
  <path d="M 60 14 L 69 14 L 69 23 L 60 23 Z M 60 14 "/>
</clipPath>
<clipPath id="clip107">
  <path d="M 68.003906 18.15625 C 68.003906 15.953125 66.21875 14.167969 64.019531 14.167969 C 61.820312 14.167969 60.035156 15.953125 60.035156 18.15625 C 60.035156 20.355469 61.820312 22.140625 64.019531 22.140625 C 66.21875 22.140625 68.003906 20.355469 68.003906 18.15625 Z M 68.003906 18.15625 "/>
</clipPath>
<clipPath id="clip108">
  <path d="M 59 13 L 69 13 L 69 23 L 59 23 Z M 59 13 "/>
</clipPath>
<clipPath id="clip109">
  <path d="M 68.402344 18.15625 C 68.402344 15.734375 66.441406 13.769531 64.019531 13.769531 C 61.597656 13.769531 59.636719 15.734375 59.636719 18.15625 C 59.636719 20.574219 61.597656 22.539062 64.019531 22.539062 C 66.441406 22.539062 68.402344 20.574219 68.402344 18.15625 Z M 68.402344 18.15625 "/>
</clipPath>
<clipPath id="clip110">
  <path d="M 26 70 L 35 70 L 35 79 L 26 79 Z M 26 70 "/>
</clipPath>
<clipPath id="clip111">
  <path d="M 34.125 74.375 C 34.125 72.175781 32.339844 70.390625 30.136719 70.390625 C 27.9375 70.390625 26.152344 72.175781 26.152344 74.375 C 26.152344 76.578125 27.9375 78.363281 30.136719 78.363281 C 32.339844 78.363281 34.125 76.578125 34.125 74.375 Z M 34.125 74.375 "/>
</clipPath>
<clipPath id="clip112">
  <path d="M 25 69 L 35 69 L 35 79 L 25 79 Z M 25 69 "/>
</clipPath>
<clipPath id="clip113">
  <path d="M 34.523438 74.375 C 34.523438 71.957031 32.558594 69.992188 30.136719 69.992188 C 27.71875 69.992188 25.753906 71.957031 25.753906 74.375 C 25.753906 76.796875 27.71875 78.761719 30.136719 78.761719 C 32.558594 78.761719 34.523438 76.796875 34.523438 74.375 Z M 34.523438 74.375 "/>
</clipPath>
</defs>
<g id="surface1">
<g clip-path="url(#clip1)" clip-rule="nonzero">
<path style="fill:none;stroke-width:1.19553;stroke-linecap:butt;stroke-linejoin:miter;stroke:rgb(0%,0%,0%);stroke-opacity:1;stroke-miterlimit:10;" d="M 97.199 10.8 C 95.210719 14.3 93.409937 17.905469 91.800562 21.600781 C 85.659937 35.721875 82.437281 50.991406 75.601344 64.8 C 66.874781 82.421094 51.702906 97.104688 32.402125 97.202344 C 23.73025 97.241406 15.156031 93.803906 10.800562 86.401563 C 6.925562 79.819531 7.429469 71.702344 10.800562 64.8 C 18.382594 49.276563 36.363062 43.194531 53.999781 43.198438 C 71.632594 43.20625 89.601344 49.288281 97.199 64.8 C 100.581812 71.702344 101.097437 79.827344 97.199 86.401563 C 92.827906 93.772656 84.253687 97.132031 75.601344 97.202344 C 56.034937 97.358594 39.831812 83.233594 32.402125 64.8 C 26.827906 50.983594 26.398219 35.690625 21.601344 21.600781 C 19.722437 16.085156 16.320094 10.667188 10.800562 10.8 C 0.718531 11.046094 -0.066625 25.061719 5.402125 37.8 C 11.476344 51.967969 14.113062 67.503125 21.601344 80.999219 C 32.640406 100.897656 53.007594 114.315625 75.601344 113.401563 C 88.320094 112.885938 100.54275 107.475781 107.999781 97.202344 C 114.765406 87.878125 116.527125 75.901563 113.402125 64.8 C 106.425562 40.010938 80.554469 26.999219 53.999781 26.999219 C 27.449 27.003125 1.585719 40.014844 -5.398656 64.8 C -8.527563 75.901563 -6.773656 87.882031 -0.00021875 97.202344 C 7.460719 107.464063 19.687281 112.842969 32.402125 113.401563 C 55.066187 114.397656 75.679469 101.132031 86.402125 80.999219 C 94.468531 65.854688 96.066187 48.2375 102.601344 32.401563 C 104.1365 28.675 105.945094 25.065625 107.999781 21.600781 " transform="matrix(1,0,0,-1,10.801,118.8)"/>
<path style="fill:none;stroke-width:1.19553;stroke-linecap:butt;stroke-linejoin:miter;stroke:rgb(0%,0%,0%);stroke-opacity:1;stroke-miterlimit:10;" d="M 118.800562 10.8 C 112.824 9.553906 106.6365 11.616406 102.601344 16.198438 C 99.909937 19.257031 98.476344 23.139844 97.199 26.999219 C 92.093531 42.444531 88.808375 58.604688 80.999781 72.901563 C 70.874781 91.448438 53.265406 105.64375 32.402125 105.3 C 21.699 105.128125 11.308375 100.667188 5.402125 91.8 C 0.10525 83.858594 -0.535375 73.807813 2.699 64.8 C 9.964625 44.589063 31.929469 35.089063 53.999781 35.100781 C 76.058375 35.108594 98.003687 44.608594 105.300562 64.8 C 108.558375 73.807813 107.937281 83.882031 102.601344 91.8 C 96.66775 100.608594 86.269312 104.925 75.601344 105.3 C 54.320094 106.05 35.324 92.639844 26.999781 72.901563 C 21.101344 58.913281 21.23025 42.823438 13.499781 29.698438 C 8.101344 20.534375 -0.590063 13.776563 -10.801 10.8 " transform="matrix(1,0,0,-1,10.801,118.8)"/>
</g>
<g clip-path="url(#clip2)" clip-rule="nonzero">
<g clip-path="url(#clip3)" clip-rule="nonzero">
<path style="fill:none;stroke-width:4.7821;stroke-linecap:butt;stroke-linejoin:miter;stroke:rgb(100%,100%,100%);stroke-opacity:1;stroke-miterlimit:10;" d="M 91.800562 21.600781 C 85.659937 35.721875 82.437281 50.991406 75.601344 64.8 " transform="matrix(1,0,0,-1,10.801,118.8)"/>
</g>
</g>
<g clip-path="url(#clip4)" clip-rule="nonzero">
<g clip-path="url(#clip5)" clip-rule="nonzero">
<path style="fill:none;stroke-width:1.19553;stroke-linecap:butt;stroke-linejoin:miter;stroke:rgb(0%,0%,0%);stroke-opacity:1;stroke-miterlimit:10;" d="M 91.800562 21.600781 C 85.659937 35.721875 82.437281 50.991406 75.601344 64.8 " transform="matrix(1,0,0,-1,10.801,118.8)"/>
</g>
</g>
<g clip-path="url(#clip6)" clip-rule="nonzero">
<g clip-path="url(#clip7)" clip-rule="nonzero">
<path style="fill:none;stroke-width:4.7821;stroke-linecap:butt;stroke-linejoin:miter;stroke:rgb(100%,100%,100%);stroke-opacity:1;stroke-miterlimit:10;" d="M 91.800562 21.600781 C 85.659937 35.721875 82.437281 50.991406 75.601344 64.8 " transform="matrix(1,0,0,-1,10.801,118.8)"/>
</g>
</g>
<g clip-path="url(#clip8)" clip-rule="nonzero">
<g clip-path="url(#clip9)" clip-rule="nonzero">
<path style="fill:none;stroke-width:1.19553;stroke-linecap:butt;stroke-linejoin:miter;stroke:rgb(0%,0%,0%);stroke-opacity:1;stroke-miterlimit:10;" d="M 91.800562 21.600781 C 85.659937 35.721875 82.437281 50.991406 75.601344 64.8 " transform="matrix(1,0,0,-1,10.801,118.8)"/>
</g>
</g>
<g clip-path="url(#clip10)" clip-rule="nonzero">
<g clip-path="url(#clip11)" clip-rule="nonzero">
<path style="fill:none;stroke-width:4.7821;stroke-linecap:butt;stroke-linejoin:miter;stroke:rgb(100%,100%,100%);stroke-opacity:1;stroke-miterlimit:10;" d="M 53.999781 35.100781 C 76.058375 35.108594 98.003687 44.608594 105.300562 64.8 " transform="matrix(1,0,0,-1,10.801,118.8)"/>
</g>
</g>
<g clip-path="url(#clip12)" clip-rule="nonzero">
<g clip-path="url(#clip13)" clip-rule="nonzero">
<path style="fill:none;stroke-width:1.19553;stroke-linecap:butt;stroke-linejoin:miter;stroke:rgb(0%,0%,0%);stroke-opacity:1;stroke-miterlimit:10;" d="M 53.999781 35.100781 C 76.058375 35.108594 98.003687 44.608594 105.300562 64.8 " transform="matrix(1,0,0,-1,10.801,118.8)"/>
</g>
</g>
<g clip-path="url(#clip14)" clip-rule="nonzero">
<g clip-path="url(#clip15)" clip-rule="nonzero">
<path style="fill:none;stroke-width:4.7821;stroke-linecap:butt;stroke-linejoin:miter;stroke:rgb(100%,100%,100%);stroke-opacity:1;stroke-miterlimit:10;" d="M 68.972437 96.698438 C 52.413844 94.042188 38.976344 81.108594 32.402125 64.8 " transform="matrix(1,0,0,-1,10.801,118.8)"/>
</g>
</g>
<g clip-path="url(#clip16)" clip-rule="nonzero">
<g clip-path="url(#clip17)" clip-rule="nonzero">
<path style="fill:none;stroke-width:1.19553;stroke-linecap:butt;stroke-linejoin:miter;stroke:rgb(0%,0%,0%);stroke-opacity:1;stroke-miterlimit:10;" d="M 68.972437 96.698438 C 52.413844 94.042188 38.976344 81.108594 32.402125 64.8 " transform="matrix(1,0,0,-1,10.801,118.8)"/>
</g>
</g>
<g clip-path="url(#clip18)" clip-rule="nonzero">
<g clip-path="url(#clip19)" clip-rule="nonzero">
<path style="fill:none;stroke-width:4.7821;stroke-linecap:butt;stroke-linejoin:miter;stroke:rgb(100%,100%,100%);stroke-opacity:1;stroke-miterlimit:10;" d="M 21.601344 80.999219 C 30.10525 96.33125 44.148219 107.815625 60.48025 111.8625 " transform="matrix(1,0,0,-1,10.801,118.8)"/>
</g>
</g>
<g clip-path="url(#clip20)" clip-rule="nonzero">
<g clip-path="url(#clip21)" clip-rule="nonzero">
<path style="fill:none;stroke-width:1.19553;stroke-linecap:butt;stroke-linejoin:miter;stroke:rgb(0%,0%,0%);stroke-opacity:1;stroke-miterlimit:10;" d="M 21.601344 80.999219 C 30.10525 96.33125 44.148219 107.815625 60.48025 111.8625 " transform="matrix(1,0,0,-1,10.801,118.8)"/>
</g>
</g>
<g clip-path="url(#clip22)" clip-rule="nonzero">
<g clip-path="url(#clip23)" clip-rule="nonzero">
<path style="fill:none;stroke-width:4.7821;stroke-linecap:butt;stroke-linejoin:miter;stroke:rgb(100%,100%,100%);stroke-opacity:1;stroke-miterlimit:10;" d="M 75.601344 64.8 C 66.874781 82.421094 51.702906 97.104688 32.402125 97.202344 " transform="matrix(1,0,0,-1,10.801,118.8)"/>
</g>
</g>
<g clip-path="url(#clip24)" clip-rule="nonzero">
<g clip-path="url(#clip25)" clip-rule="nonzero">
<path style="fill:none;stroke-width:1.19553;stroke-linecap:butt;stroke-linejoin:miter;stroke:rgb(0%,0%,0%);stroke-opacity:1;stroke-miterlimit:10;" d="M 75.601344 64.8 C 66.874781 82.421094 51.702906 97.104688 32.402125 97.202344 " transform="matrix(1,0,0,-1,10.801,118.8)"/>
</g>
</g>
<g clip-path="url(#clip26)" clip-rule="nonzero">
<g clip-path="url(#clip27)" clip-rule="nonzero">
<path style="fill:none;stroke-width:4.7821;stroke-linecap:butt;stroke-linejoin:miter;stroke:rgb(100%,100%,100%);stroke-opacity:1;stroke-miterlimit:10;" d="M 10.800562 64.8 C 18.382594 49.276563 36.363062 43.194531 53.999781 43.198438 " transform="matrix(1,0,0,-1,10.801,118.8)"/>
</g>
</g>
<g clip-path="url(#clip28)" clip-rule="nonzero">
<g clip-path="url(#clip29)" clip-rule="nonzero">
<path style="fill:none;stroke-width:1.19553;stroke-linecap:butt;stroke-linejoin:miter;stroke:rgb(0%,0%,0%);stroke-opacity:1;stroke-miterlimit:10;" d="M 10.800562 64.8 C 18.382594 49.276563 36.363062 43.194531 53.999781 43.198438 " transform="matrix(1,0,0,-1,10.801,118.8)"/>
</g>
</g>
<g clip-path="url(#clip30)" clip-rule="nonzero">
<g clip-path="url(#clip31)" clip-rule="nonzero">
<path style="fill:none;stroke-width:4.7821;stroke-linecap:butt;stroke-linejoin:miter;stroke:rgb(100%,100%,100%);stroke-opacity:1;stroke-miterlimit:10;" d="M 10.800562 64.8 C 18.382594 49.276563 36.363062 43.194531 53.999781 43.198438 " transform="matrix(1,0,0,-1,10.801,118.8)"/>
</g>
</g>
<g clip-path="url(#clip32)" clip-rule="nonzero">
<g clip-path="url(#clip33)" clip-rule="nonzero">
<path style="fill:none;stroke-width:1.19553;stroke-linecap:butt;stroke-linejoin:miter;stroke:rgb(0%,0%,0%);stroke-opacity:1;stroke-miterlimit:10;" d="M 10.800562 64.8 C 18.382594 49.276563 36.363062 43.194531 53.999781 43.198438 " transform="matrix(1,0,0,-1,10.801,118.8)"/>
</g>
</g>
<g clip-path="url(#clip34)" clip-rule="nonzero">
<g clip-path="url(#clip35)" clip-rule="nonzero">
<path style="fill:none;stroke-width:4.7821;stroke-linecap:butt;stroke-linejoin:miter;stroke:rgb(100%,100%,100%);stroke-opacity:1;stroke-miterlimit:10;" d="M 26.999781 72.901563 C 21.101344 58.913281 21.23025 42.823438 13.499781 29.698438 " transform="matrix(1,0,0,-1,10.801,118.8)"/>
</g>
</g>
<g clip-path="url(#clip36)" clip-rule="nonzero">
<g clip-path="url(#clip37)" clip-rule="nonzero">
<path style="fill:none;stroke-width:1.19553;stroke-linecap:butt;stroke-linejoin:miter;stroke:rgb(0%,0%,0%);stroke-opacity:1;stroke-miterlimit:10;" d="M 26.999781 72.901563 C 21.101344 58.913281 21.23025 42.823438 13.499781 29.698438 " transform="matrix(1,0,0,-1,10.801,118.8)"/>
</g>
</g>
<g clip-path="url(#clip38)" clip-rule="nonzero">
<g clip-path="url(#clip39)" clip-rule="nonzero">
<path style="fill:none;stroke-width:4.7821;stroke-linecap:butt;stroke-linejoin:miter;stroke:rgb(100%,100%,100%);stroke-opacity:1;stroke-miterlimit:10;" d="M 86.402125 80.999219 C 94.468531 65.854688 96.066187 48.2375 102.601344 32.401563 " transform="matrix(1,0,0,-1,10.801,118.8)"/>
</g>
</g>
<g clip-path="url(#clip40)" clip-rule="nonzero">
<g clip-path="url(#clip41)" clip-rule="nonzero">
<path style="fill:none;stroke-width:1.19553;stroke-linecap:butt;stroke-linejoin:miter;stroke:rgb(0%,0%,0%);stroke-opacity:1;stroke-miterlimit:10;" d="M 86.402125 80.999219 C 94.468531 65.854688 96.066187 48.2375 102.601344 32.401563 " transform="matrix(1,0,0,-1,10.801,118.8)"/>
</g>
</g>
<g clip-path="url(#clip42)" clip-rule="nonzero">
<g clip-path="url(#clip43)" clip-rule="nonzero">
<path style="fill:none;stroke-width:4.7821;stroke-linecap:butt;stroke-linejoin:miter;stroke:rgb(100%,100%,100%);stroke-opacity:1;stroke-miterlimit:10;" d="M 53.999781 43.198438 C 71.632594 43.20625 89.601344 49.288281 97.199 64.8 " transform="matrix(1,0,0,-1,10.801,118.8)"/>
</g>
</g>
<g clip-path="url(#clip44)" clip-rule="nonzero">
<g clip-path="url(#clip45)" clip-rule="nonzero">
<path style="fill:none;stroke-width:1.19553;stroke-linecap:butt;stroke-linejoin:miter;stroke:rgb(0%,0%,0%);stroke-opacity:1;stroke-miterlimit:10;" d="M 53.999781 43.198438 C 71.632594 43.20625 89.601344 49.288281 97.199 64.8 " transform="matrix(1,0,0,-1,10.801,118.8)"/>
</g>
</g>
<g clip-path="url(#clip46)" clip-rule="nonzero">
<g clip-path="url(#clip47)" clip-rule="nonzero">
<path style="fill:none;stroke-width:4.7821;stroke-linecap:butt;stroke-linejoin:miter;stroke:rgb(100%,100%,100%);stroke-opacity:1;stroke-miterlimit:10;" d="M 75.601344 97.202344 C 73.343531 97.217969 71.132594 97.046094 68.972437 96.698438 " transform="matrix(1,0,0,-1,10.801,118.8)"/>
</g>
</g>
<g clip-path="url(#clip48)" clip-rule="nonzero">
<g clip-path="url(#clip49)" clip-rule="nonzero">
<path style="fill:none;stroke-width:1.19553;stroke-linecap:butt;stroke-linejoin:miter;stroke:rgb(0%,0%,0%);stroke-opacity:1;stroke-miterlimit:10;" d="M 75.601344 97.202344 C 73.343531 97.217969 71.132594 97.046094 68.972437 96.698438 " transform="matrix(1,0,0,-1,10.801,118.8)"/>
</g>
</g>
<g clip-path="url(#clip50)" clip-rule="nonzero">
<g clip-path="url(#clip51)" clip-rule="nonzero">
<path style="fill:none;stroke-width:4.7821;stroke-linecap:butt;stroke-linejoin:miter;stroke:rgb(100%,100%,100%);stroke-opacity:1;stroke-miterlimit:10;" d="M 80.999781 72.901563 C 70.874781 91.448438 53.265406 105.64375 32.402125 105.3 " transform="matrix(1,0,0,-1,10.801,118.8)"/>
</g>
</g>
<g clip-path="url(#clip52)" clip-rule="nonzero">
<g clip-path="url(#clip53)" clip-rule="nonzero">
<path style="fill:none;stroke-width:1.19553;stroke-linecap:butt;stroke-linejoin:miter;stroke:rgb(0%,0%,0%);stroke-opacity:1;stroke-miterlimit:10;" d="M 80.999781 72.901563 C 70.874781 91.448438 53.265406 105.64375 32.402125 105.3 " transform="matrix(1,0,0,-1,10.801,118.8)"/>
</g>
</g>
<g clip-path="url(#clip54)" clip-rule="nonzero">
<g clip-path="url(#clip55)" clip-rule="nonzero">
<path style="fill:none;stroke-width:4.7821;stroke-linecap:butt;stroke-linejoin:miter;stroke:rgb(100%,100%,100%);stroke-opacity:1;stroke-miterlimit:10;" d="M 53.999781 26.999219 C 29.277125 27.003125 5.152125 38.284375 -3.695531 59.846875 " transform="matrix(1,0,0,-1,10.801,118.8)"/>
</g>
</g>
<g clip-path="url(#clip56)" clip-rule="nonzero">
<g clip-path="url(#clip57)" clip-rule="nonzero">
<path style="fill:none;stroke-width:1.19553;stroke-linecap:butt;stroke-linejoin:miter;stroke:rgb(0%,0%,0%);stroke-opacity:1;stroke-miterlimit:10;" d="M 53.999781 26.999219 C 29.277125 27.003125 5.152125 38.284375 -3.695531 59.846875 " transform="matrix(1,0,0,-1,10.801,118.8)"/>
</g>
</g>
<g clip-path="url(#clip58)" clip-rule="nonzero">
<g clip-path="url(#clip59)" clip-rule="nonzero">
<path style="fill:none;stroke-width:4.7821;stroke-linecap:butt;stroke-linejoin:miter;stroke:rgb(100%,100%,100%);stroke-opacity:1;stroke-miterlimit:10;" d="M 32.402125 64.8 C 26.827906 50.983594 26.398219 35.690625 21.601344 21.600781 " transform="matrix(1,0,0,-1,10.801,118.8)"/>
</g>
</g>
<g clip-path="url(#clip60)" clip-rule="nonzero">
<g clip-path="url(#clip61)" clip-rule="nonzero">
<path style="fill:none;stroke-width:1.19553;stroke-linecap:butt;stroke-linejoin:miter;stroke:rgb(0%,0%,0%);stroke-opacity:1;stroke-miterlimit:10;" d="M 32.402125 64.8 C 26.827906 50.983594 26.398219 35.690625 21.601344 21.600781 " transform="matrix(1,0,0,-1,10.801,118.8)"/>
</g>
</g>
<g clip-path="url(#clip62)" clip-rule="nonzero">
<g clip-path="url(#clip63)" clip-rule="nonzero">
<path style="fill:none;stroke-width:4.7821;stroke-linecap:butt;stroke-linejoin:miter;stroke:rgb(100%,100%,100%);stroke-opacity:1;stroke-miterlimit:10;" d="M 5.433375 12.83125 C 0.679469 17.198438 1.148219 27.885938 5.402125 37.8 " transform="matrix(1,0,0,-1,10.801,118.8)"/>
</g>
</g>
<g clip-path="url(#clip64)" clip-rule="nonzero">
<g clip-path="url(#clip65)" clip-rule="nonzero">
<path style="fill:none;stroke-width:1.19553;stroke-linecap:butt;stroke-linejoin:miter;stroke:rgb(0%,0%,0%);stroke-opacity:1;stroke-miterlimit:10;" d="M 5.433375 12.83125 C 0.679469 17.198438 1.148219 27.885938 5.402125 37.8 " transform="matrix(1,0,0,-1,10.801,118.8)"/>
</g>
</g>
<g clip-path="url(#clip66)" clip-rule="nonzero">
<g clip-path="url(#clip67)" clip-rule="nonzero">
<path style="fill:none;stroke-width:4.7821;stroke-linecap:butt;stroke-linejoin:miter;stroke:rgb(100%,100%,100%);stroke-opacity:1;stroke-miterlimit:10;" d="M 53.999781 26.999219 C 29.277125 27.003125 5.152125 38.284375 -3.695531 59.846875 " transform="matrix(1,0,0,-1,10.801,118.8)"/>
</g>
</g>
<g clip-path="url(#clip68)" clip-rule="nonzero">
<g clip-path="url(#clip69)" clip-rule="nonzero">
<path style="fill:none;stroke-width:1.19553;stroke-linecap:butt;stroke-linejoin:miter;stroke:rgb(0%,0%,0%);stroke-opacity:1;stroke-miterlimit:10;" d="M 53.999781 26.999219 C 29.277125 27.003125 5.152125 38.284375 -3.695531 59.846875 " transform="matrix(1,0,0,-1,10.801,118.8)"/>
</g>
</g>
<g clip-path="url(#clip70)" clip-rule="nonzero">
<g clip-path="url(#clip71)" clip-rule="nonzero">
<path style="fill:none;stroke-width:4.7821;stroke-linecap:butt;stroke-linejoin:miter;stroke:rgb(100%,100%,100%);stroke-opacity:1;stroke-miterlimit:10;" d="M 5.402125 37.8 C 11.476344 51.967969 14.113062 67.503125 21.601344 80.999219 " transform="matrix(1,0,0,-1,10.801,118.8)"/>
</g>
</g>
<g clip-path="url(#clip72)" clip-rule="nonzero">
<g clip-path="url(#clip73)" clip-rule="nonzero">
<path style="fill:none;stroke-width:1.19553;stroke-linecap:butt;stroke-linejoin:miter;stroke:rgb(0%,0%,0%);stroke-opacity:1;stroke-miterlimit:10;" d="M 5.402125 37.8 C 11.476344 51.967969 14.113062 67.503125 21.601344 80.999219 " transform="matrix(1,0,0,-1,10.801,118.8)"/>
</g>
</g>
<g clip-path="url(#clip74)" clip-rule="nonzero">
<g clip-path="url(#clip75)" clip-rule="nonzero">
<path style="fill:none;stroke-width:4.7821;stroke-linecap:butt;stroke-linejoin:miter;stroke:rgb(100%,100%,100%);stroke-opacity:1;stroke-miterlimit:10;" d="M 21.601344 80.999219 C 30.10525 96.33125 44.148219 107.815625 60.48025 111.8625 " transform="matrix(1,0,0,-1,10.801,118.8)"/>
</g>
</g>
<g clip-path="url(#clip76)" clip-rule="nonzero">
<g clip-path="url(#clip77)" clip-rule="nonzero">
<path style="fill:none;stroke-width:1.19553;stroke-linecap:butt;stroke-linejoin:miter;stroke:rgb(0%,0%,0%);stroke-opacity:1;stroke-miterlimit:10;" d="M 21.601344 80.999219 C 30.10525 96.33125 44.148219 107.815625 60.48025 111.8625 " transform="matrix(1,0,0,-1,10.801,118.8)"/>
</g>
</g>
<g clip-path="url(#clip78)" clip-rule="nonzero">
<g clip-path="url(#clip79)" clip-rule="nonzero">
<path style="fill:none;stroke-width:4.7821;stroke-linecap:butt;stroke-linejoin:miter;stroke:rgb(100%,100%,100%);stroke-opacity:1;stroke-miterlimit:10;" d="M 80.999781 72.901563 C 70.874781 91.448438 53.265406 105.64375 32.402125 105.3 " transform="matrix(1,0,0,-1,10.801,118.8)"/>
</g>
</g>
<g clip-path="url(#clip80)" clip-rule="nonzero">
<g clip-path="url(#clip81)" clip-rule="nonzero">
<path style="fill:none;stroke-width:1.19553;stroke-linecap:butt;stroke-linejoin:miter;stroke:rgb(0%,0%,0%);stroke-opacity:1;stroke-miterlimit:10;" d="M 80.999781 72.901563 C 70.874781 91.448438 53.265406 105.64375 32.402125 105.3 " transform="matrix(1,0,0,-1,10.801,118.8)"/>
</g>
</g>
<g clip-path="url(#clip82)" clip-rule="nonzero">
<g clip-path="url(#clip83)" clip-rule="nonzero">
<path style="fill:none;stroke-width:4.7821;stroke-linecap:butt;stroke-linejoin:miter;stroke:rgb(100%,100%,100%);stroke-opacity:1;stroke-miterlimit:10;" d="M 86.402125 80.999219 C 94.468531 65.854688 96.066187 48.2375 102.601344 32.401563 " transform="matrix(1,0,0,-1,10.801,118.8)"/>
</g>
</g>
<g clip-path="url(#clip84)" clip-rule="nonzero">
<g clip-path="url(#clip85)" clip-rule="nonzero">
<path style="fill:none;stroke-width:1.19553;stroke-linecap:butt;stroke-linejoin:miter;stroke:rgb(0%,0%,0%);stroke-opacity:1;stroke-miterlimit:10;" d="M 86.402125 80.999219 C 94.468531 65.854688 96.066187 48.2375 102.601344 32.401563 " transform="matrix(1,0,0,-1,10.801,118.8)"/>
</g>
</g>
<g clip-path="url(#clip86)" clip-rule="nonzero">
<g clip-path="url(#clip87)" clip-rule="nonzero">
<path style="fill:none;stroke-width:4.7821;stroke-linecap:butt;stroke-linejoin:miter;stroke:rgb(100%,100%,100%);stroke-opacity:1;stroke-miterlimit:10;" d="M 111.691187 59.83125 C 102.847437 38.272656 78.722437 26.999219 53.999781 26.999219 " transform="matrix(1,0,0,-1,10.801,118.8)"/>
</g>
</g>
<g clip-path="url(#clip88)" clip-rule="nonzero">
<g clip-path="url(#clip89)" clip-rule="nonzero">
<path style="fill:none;stroke-width:1.19553;stroke-linecap:butt;stroke-linejoin:miter;stroke:rgb(0%,0%,0%);stroke-opacity:1;stroke-miterlimit:10;" d="M 111.691187 59.83125 C 102.847437 38.272656 78.722437 26.999219 53.999781 26.999219 " transform="matrix(1,0,0,-1,10.801,118.8)"/>
</g>
</g>
<g clip-path="url(#clip90)" clip-rule="nonzero">
<g clip-path="url(#clip91)" clip-rule="nonzero">
<path style="fill:none;stroke-width:4.7821;stroke-linecap:butt;stroke-linejoin:miter;stroke:rgb(100%,100%,100%);stroke-opacity:1;stroke-miterlimit:10;" d="M 26.999781 72.901563 C 21.101344 58.913281 21.23025 42.823438 13.499781 29.698438 " transform="matrix(1,0,0,-1,10.801,118.8)"/>
</g>
</g>
<g clip-path="url(#clip92)" clip-rule="nonzero">
<g clip-path="url(#clip93)" clip-rule="nonzero">
<path style="fill:none;stroke-width:1.19553;stroke-linecap:butt;stroke-linejoin:miter;stroke:rgb(0%,0%,0%);stroke-opacity:1;stroke-miterlimit:10;" d="M 26.999781 72.901563 C 21.101344 58.913281 21.23025 42.823438 13.499781 29.698438 " transform="matrix(1,0,0,-1,10.801,118.8)"/>
</g>
</g>
<g clip-path="url(#clip94)" clip-rule="nonzero">
<g clip-path="url(#clip95)" clip-rule="nonzero">
<path style="fill:none;stroke-width:4.7821;stroke-linecap:butt;stroke-linejoin:miter;stroke:rgb(100%,100%,100%);stroke-opacity:1;stroke-miterlimit:10;" d="M 52.593531 110.45625 C 66.863062 105.542188 78.991969 94.909375 86.402125 80.999219 " transform="matrix(1,0,0,-1,10.801,118.8)"/>
</g>
</g>
<g clip-path="url(#clip96)" clip-rule="nonzero">
<g clip-path="url(#clip97)" clip-rule="nonzero">
<path style="fill:none;stroke-width:1.19553;stroke-linecap:butt;stroke-linejoin:miter;stroke:rgb(0%,0%,0%);stroke-opacity:1;stroke-miterlimit:10;" d="M 52.593531 110.45625 C 66.863062 105.542188 78.991969 94.909375 86.402125 80.999219 " transform="matrix(1,0,0,-1,10.801,118.8)"/>
</g>
</g>
<g clip-path="url(#clip98)" clip-rule="nonzero">
<g clip-path="url(#clip99)" clip-rule="nonzero">
<path style="fill:none;stroke-width:4.7821;stroke-linecap:butt;stroke-linejoin:miter;stroke:rgb(100%,100%,100%);stroke-opacity:1;stroke-miterlimit:10;" d="M 53.999781 35.100781 C 76.058375 35.108594 98.003687 44.608594 105.300562 64.8 " transform="matrix(1,0,0,-1,10.801,118.8)"/>
</g>
</g>
<g clip-path="url(#clip100)" clip-rule="nonzero">
<g clip-path="url(#clip101)" clip-rule="nonzero">
<path style="fill:none;stroke-width:1.19553;stroke-linecap:butt;stroke-linejoin:miter;stroke:rgb(0%,0%,0%);stroke-opacity:1;stroke-miterlimit:10;" d="M 53.999781 35.100781 C 76.058375 35.108594 98.003687 44.608594 105.300562 64.8 " transform="matrix(1,0,0,-1,10.801,118.8)"/>
</g>
</g>
<g clip-path="url(#clip102)" clip-rule="nonzero">
<g clip-path="url(#clip103)" clip-rule="nonzero">
<path style="fill:none;stroke-width:4.7821;stroke-linecap:butt;stroke-linejoin:miter;stroke:rgb(100%,100%,100%);stroke-opacity:1;stroke-miterlimit:10;" d="M 97.199 26.999219 C 92.093531 42.444531 88.808375 58.604688 80.999781 72.901563 " transform="matrix(1,0,0,-1,10.801,118.8)"/>
</g>
</g>
<g clip-path="url(#clip104)" clip-rule="nonzero">
<g clip-path="url(#clip105)" clip-rule="nonzero">
<path style="fill:none;stroke-width:1.19553;stroke-linecap:butt;stroke-linejoin:miter;stroke:rgb(0%,0%,0%);stroke-opacity:1;stroke-miterlimit:10;" d="M 97.199 26.999219 C 92.093531 42.444531 88.808375 58.604688 80.999781 72.901563 " transform="matrix(1,0,0,-1,10.801,118.8)"/>
</g>
</g>
<g clip-path="url(#clip106)" clip-rule="nonzero">
<g clip-path="url(#clip107)" clip-rule="nonzero">
<path style="fill:none;stroke-width:4.7821;stroke-linecap:butt;stroke-linejoin:miter;stroke:rgb(100%,100%,100%);stroke-opacity:1;stroke-miterlimit:10;" d="M 53.491969 100.784375 C 41.804469 95.346875 32.265406 85.389844 26.999781 72.901563 " transform="matrix(1,0,0,-1,10.801,118.8)"/>
</g>
</g>
<g clip-path="url(#clip108)" clip-rule="nonzero">
<g clip-path="url(#clip109)" clip-rule="nonzero">
<path style="fill:none;stroke-width:1.19553;stroke-linecap:butt;stroke-linejoin:miter;stroke:rgb(0%,0%,0%);stroke-opacity:1;stroke-miterlimit:10;" d="M 53.491969 100.784375 C 41.804469 95.346875 32.265406 85.389844 26.999781 72.901563 " transform="matrix(1,0,0,-1,10.801,118.8)"/>
</g>
</g>
<g clip-path="url(#clip110)" clip-rule="nonzero">
<g clip-path="url(#clip111)" clip-rule="nonzero">
<path style="fill:none;stroke-width:4.7821;stroke-linecap:butt;stroke-linejoin:miter;stroke:rgb(100%,100%,100%);stroke-opacity:1;stroke-miterlimit:10;" d="M 2.699 64.8 C 9.964625 44.589063 31.929469 35.089063 53.999781 35.100781 " transform="matrix(1,0,0,-1,10.801,118.8)"/>
</g>
</g>
<g clip-path="url(#clip112)" clip-rule="nonzero">
<g clip-path="url(#clip113)" clip-rule="nonzero">
<path style="fill:none;stroke-width:1.19553;stroke-linecap:butt;stroke-linejoin:miter;stroke:rgb(0%,0%,0%);stroke-opacity:1;stroke-miterlimit:10;" d="M 2.699 64.8 C 9.964625 44.589063 31.929469 35.089063 53.999781 35.100781 " transform="matrix(1,0,0,-1,10.801,118.8)"/>
</g>
</g>
</g>
</svg>
